<?xml version="1.0" encoding="UTF-8" standalone="no"?>
<svg width="140px" height="46px" viewBox="0 0 140 46" version="1.1" xmlns="http://www.w3.org/2000/svg" xmlns:xlink="http://www.w3.org/1999/xlink">
    <!-- Generator: Sketch 40.3 (33839) - http://www.bohemiancoding.com/sketch -->
    <title>MHR_logo_cmyk_xxxx_l102457</title>
    <desc>Created with Sketch.</desc>
    <defs>
        <polygon id="path-1" points="0.0117154812 0.0521338912 0.0117154812 21.9999163 39.832636 21.9999163 39.832636 0.0521338912"></polygon>
        <polygon id="path-3" points="0.0117154812 0.0521338912 0.0117154812 21.9999163 39.832636 21.9999163 39.832636 0.0521338912"></polygon>
        <path d="M3.28868318,2.32419277 C2.35524038,2.32419243 1.30301075,2.07458334 0.164211994,1.39902371 C0.13609484,1.38242678 0.105244072,1.36563458 0.0769316597,1.34845188 C0.298158996,1.32677824 1.80105997,1.19986053 3.48633194,0.0316317991 C4.87910739,0.587336122 6.13481171,0.714058577 7.41101814,0.548870293 L7.35146443,0.606276151 C6.76926784,1.15776758 5.30652829,2.32418779 3.28869802,2.32419277 L3.28868318,2.32419277 L3.28868318,2.32419277 L3.28868318,2.32419277 L3.28868318,2.32419277 Z" id="path-5"></path>
    </defs>
    <g id="Page-1" stroke="none" stroke-width="1" fill="none" fill-rule="evenodd">
        <g id="MHR_logo_cmyk_xxxx_l102457">
            <g id="Page-1">
                <g id="new_hompage_start_pattern_gray">
                    <g id="Group-3">
                        <g id="MHR_logo_cmyk_xxxx_l102457">
                            <g id="Page-1">
                                <g id="MHR_logo_cmyk_xxxx_l102457">
                                    <polyline id="Fill-1" fill="#AA0A3B" points="4.9706834 44.910516 4.9706834 41.7377684 1.46131102 41.7377684 1.46131102 44.910516 0.522900976 44.910516 0.522900976 38.0245467 1.46131102 38.0245467 1.46131102 40.9422873 4.9706834 40.9422873 4.9706834 38.0245467 5.9092887 38.0245467 5.9092887 44.910516 4.9706834 44.910516"></polyline>
                                    <path d="M11.2349512,38.7489539 C10.0924965,38.7489539 9.07227336,39.6774058 9.07227336,41.4114924 C9.07227336,43.0540028 9.7660251,44.1761507 11.2247978,44.1761507 C12.3469456,44.1761507 13.4079777,43.2783542 13.4079777,41.5032635 C13.4079777,39.7383264 12.612106,38.7489539 11.2349512,38.7489539 L11.2349512,38.7489539 L11.2349512,38.7489539 L11.2349512,38.7489539 Z M11.1431799,45.012636 C9.07227336,45.012636 8.0725523,43.6354812 8.0725523,41.5440725 C8.0725523,39.2486192 9.54147838,37.922622 11.3368759,37.922622 C13.1935844,37.922622 14.4076988,39.1261925 14.4076988,41.3911855 C14.4076988,43.6864435 12.9385774,45.012636 11.1431799,45.012636 L11.1431799,45.012636 L11.1431799,45.012636 L11.1431799,45.012636 Z" id="Fill-2" fill="#AA0A3B"></path>
                                    <polyline id="Fill-3" fill="#AA0A3B" points="18.3661646 38.8100698 18.3661646 44.910516 17.4277545 44.910516 17.4277545 38.8100698 15.4486192 38.8100698 15.4486192 38.0245467 20.3556485 38.0245467 20.3556485 38.8100698 18.3661646 38.8100698"></polyline>
                                    <polyline id="Fill-4" fill="#AA0A3B" points="22.1615899 44.910516 22.1615899 38.0245467 25.7014226 38.0245467 25.7014226 38.7999163 23.1001953 38.7999163 23.1001953 40.9830962 25.5789959 40.9830962 25.5789959 41.7377684 23.1001953 41.7377684 23.1001953 44.1251883 25.7014226 44.1251883 25.7014226 44.910516 22.1615899 44.910516"></polyline>
                                    <polyline id="Fill-5" fill="#AA0A3B" points="28.14 44.910516 28.14 38.0245467 29.0786053 38.0245467 29.0786053 44.1046861 31.5472524 44.1046861 31.5472524 44.910516 28.14 44.910516"></polyline>
                                    <path d="M34.4347281,45.0022873 C33.8735565,45.0022873 33.3533891,44.9310182 32.924993,44.8085913 L33.0370711,43.910795 C33.4758159,44.0843794 33.9756765,44.1861088 34.4856904,44.1861088 C35.2813667,44.1861088 35.9751185,43.8598327 35.9751185,43.0131939 C35.9751185,41.4624547 32.863682,42.0745886 32.863682,39.8814505 C32.863682,38.748954 33.7206695,37.9327754 35.2712134,37.9327754 C35.6691492,37.9327754 36.1282008,37.9735844 36.515788,38.0653557 L36.4035147,38.8916876 C36.0364296,38.7796095 35.6181869,38.708145 35.220251,38.708145 C34.2816458,38.708145 33.8327475,39.1261925 33.8327475,39.7791353 C33.8327475,41.2687588 36.9851883,40.7280893 36.9851883,42.890767 C36.9851883,44.1251883 35.9751185,45.0022873 34.4347281,45.0022873" id="Fill-6" fill="#AA0A3B"></path>
                                    <path d="M44.208173,38.0960111 C43.7288145,38.0960111 43.3818409,38.432636 43.3818409,38.9020362 C43.3818409,39.2386611 43.5757322,39.6262482 44.1265551,40.258689 C44.69788,39.789484 45.0038493,39.3917434 45.0038493,38.8713808 C45.0038493,38.453138 44.7693444,38.0960111 44.208173,38.0960111 L44.208173,38.0960111 L44.208173,38.0960111 L44.208173,38.0960111 Z M43.953166,41.3400279 C43.2391074,41.9113528 42.9432915,42.3705997 42.9432915,42.9009205 C42.9432915,43.6149791 43.5042678,44.2269177 44.4020641,44.2269177 C45.2182427,44.2269177 45.8506834,43.9006415 46.289233,43.5232078 C45.4527475,42.8396095 44.5143375,41.9521618 43.953166,41.3400279 L43.953166,41.3400279 L43.953166,41.3400279 L43.953166,41.3400279 Z M48.3806415,45.1046025 C47.8909345,44.7677824 47.3196095,44.3493444 46.9320223,44.0230684 C46.2689261,44.6045467 45.3609763,45.012636 44.2388284,45.012636 C42.7697072,45.012636 42.0046861,44.1353417 42.0046861,43.0131939 C42.0046861,42.0849372 42.5861646,41.4523012 43.4226499,40.7993585 C42.7085913,39.9730264 42.4738913,39.5038215 42.4738913,38.9428452 C42.4738913,38.1165133 43.1166806,37.4022594 44.2897908,37.4022594 C45.3508229,37.4022594 45.9221478,37.9837377 45.9221478,38.7796095 C45.9221478,39.4733612 45.5650209,40.0751464 44.6469177,40.789205 C45.2385495,41.4013389 46.1158438,42.2274756 46.9013668,42.8601116 L46.9013668,42.870265 C47.350265,42.2378243 47.6460809,41.3503765 47.5951185,40.3403069 L48.5132217,40.3403069 C48.5438773,41.4931102 48.2072524,42.553947 47.5746165,43.3701255 C48.0848257,43.7680614 48.604993,44.1454951 48.9722734,44.4005021 L48.3806415,45.1046025 L48.3806415,45.1046025 L48.3806415,45.1046025 L48.3806415,45.1046025 Z" id="Fill-7" fill="#AA0A3B"></path>
                                    <path d="M55.9304881,38.7489539 C55.695788,38.7489539 55.4917434,38.7591074 55.3082008,38.7692608 L55.3082008,41.1156765 C55.4101255,41.1258298 55.6141701,41.1359832 55.8896792,41.1359832 C56.8792469,41.1359832 57.4505718,40.6361227 57.4505718,39.901562 C57.4505718,39.0754254 56.9302092,38.7489539 55.9304881,38.7489539 L55.9304881,38.7489539 L55.9304881,38.7489539 L55.9304881,38.7489539 Z M57.6850767,44.910516 L55.4306276,41.8193863 L55.3082008,41.8193863 L55.3082008,44.910516 L54.3695956,44.910516 L54.3695956,38.0245467 C54.8389959,37.9940864 55.3388563,37.9837377 56.0937238,37.9837377 C57.4505718,37.9837377 58.4297908,38.4632915 58.4297908,39.7791353 C58.4297908,40.9524408 57.5015342,41.6360391 56.4098466,41.7176569 C56.6037377,41.9625104 56.8282846,42.2173222 57.0016736,42.4522176 L58.878689,44.910516 L57.6850767,44.910516 L57.6850767,44.910516 L57.6850767,44.910516 L57.6850767,44.910516 Z" id="Fill-8" fill="#AA0A3B"></path>
                                    <polyline id="Fill-9" fill="#AA0A3B" points="60.9905997 44.910516 60.9905997 38.0245467 64.5304324 38.0245467 64.5304324 38.7999163 61.929205 38.7999163 61.929205 40.9830962 64.4080055 40.9830962 64.4080055 41.7377684 61.929205 41.7377684 61.929205 44.1251883 64.5304324 44.1251883 64.5304324 44.910516 60.9905997 44.910516"></polyline>
                                    <path d="M68.1930823,45.0022873 C67.632106,45.0022873 67.1119386,44.9310182 66.6833473,44.8085913 L66.7956206,43.910795 C67.2343654,44.0843794 67.7342259,44.1861088 68.2442399,44.1861088 C69.0399163,44.1861088 69.7336681,43.8598327 69.7336681,43.0131939 C69.7336681,41.4624547 66.6222315,42.0745886 66.6222315,39.8814505 C66.6222315,38.748954 67.4792189,37.9327754 69.0297629,37.9327754 C69.4275035,37.9327754 69.8867504,37.9735844 70.2741423,38.0653557 L70.1620641,38.8916876 C69.7947838,38.7796095 69.3765411,38.708145 68.9788006,38.708145 C68.0401953,38.708145 67.5912971,39.1261925 67.5912971,39.7791353 C67.5912971,41.2687588 70.7435426,40.7280893 70.7435426,42.890767 C70.7435426,44.1251883 69.7336681,45.0022873 68.1930823,45.0022873" id="Fill-10" fill="#AA0A3B"></path>
                                    <path d="M75.6917713,38.7489539 C74.5491214,38.7489539 73.5290934,39.6774058 73.5290934,41.4114924 C73.5290934,43.0540028 74.2226499,44.1761507 75.6814226,44.1761507 C76.8033751,44.1761507 77.8644073,43.2783542 77.8644073,41.5032635 C77.8644073,39.7383264 77.0689261,38.7489539 75.6917713,38.7489539 L75.6917713,38.7489539 L75.6917713,38.7489539 L75.6917713,38.7489539 Z M75.5998047,45.012636 C73.5290934,45.012636 72.5291771,43.6354812 72.5291771,41.5440725 C72.5291771,39.2486192 73.9981032,37.922622 75.7935007,37.922622 C77.6504044,37.922622 78.8643235,39.1261925 78.8643235,41.3911855 C78.8643235,43.6864435 77.3953975,45.012636 75.5998047,45.012636 L75.5998047,45.012636 L75.5998047,45.012636 L75.5998047,45.012636 Z" id="Fill-11" fill="#AA0A3B"></path>
                                    <path d="M82.5882846,38.7489539 C82.3537797,38.7489539 82.149735,38.7591074 81.9659972,38.7692608 L81.9659972,41.1156765 C82.0681171,41.1258298 82.2721618,41.1359832 82.5474756,41.1359832 C83.5372385,41.1359832 84.1083682,40.6361227 84.1083682,39.901562 C84.1083682,39.0754254 83.5882009,38.7489539 82.5882846,38.7489539 L82.5882846,38.7489539 L82.5882846,38.7489539 L82.5882846,38.7489539 Z M84.3430684,44.910516 L82.088424,41.8193863 L81.9659972,41.8193863 L81.9659972,44.910516 L81.0273919,44.910516 L81.0273919,38.0245467 C81.4967922,37.9940864 81.996848,37.9837377 82.7515203,37.9837377 C84.1083682,37.9837377 85.0877824,38.4632915 85.0877824,39.7791353 C85.0877824,40.9524408 84.1595258,41.6360391 83.0676429,41.7176569 C83.2617295,41.9625104 83.4860809,42.2173222 83.6596653,42.4522176 L85.5366806,44.910516 L84.3430684,44.910516 L84.3430684,44.910516 L84.3430684,44.910516 L84.3430684,44.910516 Z" id="Fill-12" fill="#AA0A3B"></path>
                                    <polyline id="Fill-13" fill="#AA0A3B" points="89.4646861 38.8100698 89.4646861 44.910516 88.5260809 44.910516 88.5260809 38.8100698 86.5469456 38.8100698 86.5469456 38.0245467 91.4539748 38.0245467 91.4539748 38.8100698 89.4646861 38.8100698"></polyline>
                                    <path d="M94.3617574,45.0022873 C93.8007811,45.0022873 93.2802232,44.9310182 92.8520223,44.8085913 L92.9641004,43.910795 C93.4026499,44.0843794 93.9027058,44.1861088 94.4129149,44.1861088 C95.2083962,44.1861088 95.9021478,43.8598327 95.9021478,43.0131939 C95.9021478,41.4624547 92.790516,42.0745886 92.790516,39.8814505 C92.790516,38.748954 93.6475035,37.9327754 95.1980475,37.9327754 C95.5961785,37.9327754 96.0550348,37.9735844 96.4428173,38.0653557 L96.3307392,38.8916876 C95.9634589,38.7796095 95.5452162,38.708145 95.1474756,38.708145 C94.2088704,38.708145 93.7599721,39.1261925 93.7599721,39.7791353 C93.7599721,41.2687588 96.9120223,40.7280893 96.9120223,42.890767 C96.9120223,44.1251883 95.9021478,45.0022873 94.3617574,45.0022873" id="Fill-14" fill="#AA0A3B"></path>
                                    <path d="M35.2602789,25.3933055 C30.6217295,25.3933055 29.9145049,20.9806695 29.9145049,19.4818689 C29.9145049,17.9826778 30.6217295,13.6832915 35.2602789,13.6832915 C39.8990237,13.6832915 40.5777406,17.9826778 40.5777406,19.4818689 C40.5777406,20.9806695 39.8990237,25.3933055 35.2602789,25.3933055 M35.2602789,11.1377127 C28.9245467,11.1377127 27.1143096,16.0591911 27.1143096,19.4818689 C27.1143096,23.0174058 28.9245467,27.938689 35.2602789,27.938689 C41.5960111,27.938689 43.4062482,23.0174058 43.4062482,19.4818689 C43.4062482,16.0591911 41.5960111,11.1377127 35.2602789,11.1377127" id="Fill-15" fill="#AA0A3B"></path>
                                    <polyline id="Fill-16" fill="#AA0A3B" points="50.9582426 22.3949233 46.3761227 11.3073919 43.4062482 11.3073919 50.8451883 27.9671966 51.0714924 27.9671966 58.5102371 11.3073919 55.5120502 11.3073919 50.9582426 22.3949233"></polyline>
                                    <polygon id="Fill-17" fill="#AA0A3B" points="104.748508 27.8256346 107.577211 27.8256346 107.577211 11.3073919 104.748508 11.3073919"></polygon>
                                    <path d="M118.356429,13.5419247 C120.053417,13.5419247 121.778716,14.5601953 122.769066,15.6348954 L124.607224,13.8527754 C123.023487,12.1276708 121.15682,10.9963459 118.356429,10.9963459 C112.048619,10.9963459 110.182343,16.0875035 110.182343,19.4816736 C110.182343,23.0172106 112.048619,28.0800557 118.356429,28.0800557 C121.071687,28.0800557 122.966667,27.1186053 124.550795,25.534477 L122.910237,23.4981311 C121.835537,24.5162064 120.194979,25.4780475 118.356429,25.4780475 C113.71788,25.3931102 113.010851,21.0089818 113.010851,19.4816736 C113.010851,17.9824826 113.71788,13.5419247 118.356429,13.5419247" id="Fill-18" fill="#AA0A3B"></path>
                                    <polyline id="Fill-19" fill="#AA0A3B" points="131.822789 19.2838773 139.431214 11.3921339 139.403096 11.3073919 136.008536 11.3073919 129.729818 17.8696235 129.729818 11.3073919 126.929429 11.3073919 126.929429 27.8254394 129.729818 27.8254394 129.729818 20.6129986 136.517963 27.8254394 139.940446 27.8254394 139.968563 27.7406974 131.822789 19.2838773"></polyline>
                                    <path d="M31.4509902,9.36027894 C32.3485913,9.36027894 33.0786611,8.63001395 33.0786611,7.73280334 C33.0786611,6.83539749 32.3485913,6.1051325 31.4509902,6.1051325 C30.5535844,6.1051325 29.8235147,6.83539749 29.8235147,7.73280334 C29.8235147,8.63001395 30.5535844,9.36027894 31.4509902,9.36027894" id="Fill-20" fill="#AA0A3B"></path>
                                    <g id="Group-24" transform="translate(0.000000, 6.052999)">
                                        <g id="Fill-21-Clipped">
                                            <g>
                                                <mask id="mask-2" fill="white">
                                                    <use xlink:href="#path-1"></use>
                                                </mask>
                                                <g id="path-1"></g>
                                                <path d="M38.2051603,3.30728034 C39.1025663,3.30728034 39.832636,2.57701534 39.832636,1.67980475 C39.832636,0.782398884 39.1025663,0.0521338912 38.2051603,0.0521338912 C37.3077545,0.0521338912 36.5774895,0.782398884 36.5774895,1.67980475 C36.5774895,2.57701534 37.3077545,3.30728034 38.2051603,3.30728034" id="Fill-21" fill="#98163A" mask="url(#mask-2)"></path>
                                            </g>
                                        </g>
                                        <g id="Fill-23-Clipped">
                                            <g>
                                                <mask id="mask-4" fill="white">
                                                    <use xlink:href="#path-3"></use>
                                                </mask>
                                                <g id="path-3"></g>
                                                <path d="M13.4376569,15.6911296 L7.02128313,1.80359832 L6.82290098,1.80359832 L0,21.7452999 L0.944267782,21.7452999 C0.944267782,21.7452999 3.13447699,21.7870851 3.78214783,19.7974058 L7.27043235,9.21285913 L13.3246025,21.9999163 L13.5509066,21.9999163 L19.6050767,9.21285913 L23.093166,19.7974058 C23.7408368,21.7870851 25.9312412,21.7452999 25.9312412,21.7452999 L26.875509,21.7452999 L20.0526081,1.80359832 L19.8542259,1.80359832 L13.4376569,15.6911296 Z" id="Fill-23" fill="#98163A" mask="url(#mask-4)"></path>
                                            </g>
                                        </g>
                                    </g>
                                    <path d="M96.8700418,19.2838773 L93.2493724,19.2838773 L93.2493724,13.7682287 L96.7849093,13.7682287 C99.1326918,13.7682287 99.6700418,15.5784658 99.6700418,16.5119945 C99.6700418,17.3887029 99.1326918,19.2838773 96.8700418,19.2838773 M96.6435426,11.3073919 L90.4489818,11.3073919 L90.4489818,27.8254394 L93.2493724,27.8254394 L93.2493724,21.8292608 L96.9829009,21.8292608 C99.6136122,21.8292608 102.44212,19.7360948 102.44212,16.5119945 C102.44212,14.3622037 101.0841,11.3073919 96.6435426,11.3073919" id="Fill-25" fill="#AA0A3B"></path>
                                    <polyline id="Fill-26" fill="#AA0A3B" points="84.5492608 21.376848 74.0273919 11.0810879 73.9141423 11.1377127 73.9141423 27.8256346 76.7432357 27.8256346 76.7432357 17.7563738 87.2080893 28.080251 87.3779637 28.0236262 87.3779637 11.3073919 84.5492608 11.3073919 84.5492608 21.376848"></polyline>
                                    <polyline id="Fill-27" fill="#AA0A3B" points="60.2070293 27.8256346 71.2100139 27.8256346 71.2100139 25.3083682 63.0072246 25.3083682 63.0072246 20.9242399 69.427894 20.9242399 69.427894 18.4069736 63.0072246 18.4069736 63.0072246 13.7963459 71.2100139 13.7963459 71.2100139 11.3073919 60.2070293 11.3073919 60.2070293 27.8256346"></polyline>
                                    <path d="M82.3586611,4.92264993 C81.138689,5.74156206 80.4164296,6.22306834 80.3119666,6.29218968 C81.6776011,6.82329149 82.9159275,6.93771269 84.171827,6.76822873 C84.5492608,6.3535007 84.7353417,6.1432078 85.0553696,5.78822873 C87.4041283,3.18270571 88.7976848,3.28306834 89.4406695,3.23562064 C89.1020921,3.06769875 88.5616179,2.93433751 87.8510739,2.93433751 C86.5385495,2.93433751 84.6431799,3.38948396 82.3586611,4.92264993" id="Fill-28"></path>
                                    <path d="M67.3798327,0.418437936 C68.5933612,0.786108786 70.73788,1.74482566 73.1514644,4.66198047 C74.4110739,6.18460251 75.575007,7.16987447 76.6180753,7.79196652 C76.6200279,7.79235704 76.6215899,7.79294281 76.6233473,7.79313808 C76.622371,7.79274756 76.6215899,7.79235704 76.620809,7.79177127 C76.8416458,7.77009763 78.3425942,7.6427894 80.0274756,6.47514644 C78.5253557,5.87550907 76.8633194,4.77659693 74.8398606,3.00775453 C72.4192469,0.892133891 70.1040725,0.357517434 68.3805299,0.357517434 C68.0194979,0.357517434 67.6844351,0.380948396 67.3798327,0.418437936" id="Fill-30"></path>
                                    <g id="Group-34" transform="translate(76.541144, 6.443515)">
                                        <g id="Fill-32-Clipped">
                                            <g>
                                                <mask id="mask-6" fill="white">
                                                    <use xlink:href="#path-5"></use>
                                                </mask>
                                                <g id="path-5"></g>
                                                <path d="M0.0769316597,1.34845188 C0.105244072,1.36563458 0.13609484,1.38242678 0.164211994,1.39902371 C3.76476988,3.53495119 6.49994421,1.41288704 7.35146443,0.606276151 L7.41101814,0.548870293 C6.13481171,0.714058577 4.87910739,0.587336122 3.48633194,0.0316317991 C1.80105997,1.19986053 0.298158996,1.32677824 0.0769316597,1.34845188" id="Fill-32" mask="url(#mask-6)"></path>
                                            </g>
                                        </g>
                                    </g>
                                    <path d="M68.2135844,0.0333891214 C67.6112134,0.0574058577 67.0961227,0.144490934 66.6938912,0.240753138 C66.8668898,0.279609484 67.0984658,0.333110182 67.3798327,0.418437936 C69.1387168,0.202873082 71.9123571,0.449093444 74.8398605,3.00775453 C78.7387727,6.41637377 81.2974337,7.3372106 83.9521618,6.99238493 C83.9867224,6.95841004 84.171827,6.76822873 84.171827,6.76822873 C82.9159275,6.93771269 81.6776011,6.82329149 80.3119666,6.29218968 C78.7770432,5.69430962 77.0806415,4.56962343 75.0175453,2.72775453 C72.7453278,0.699414226 70.5525802,0.100362622 68.8688703,0.0333891214 L68.2135844,0.0333891214" id="Fill-35"></path>
                                </g>
                            </g>
                        </g>
                        <path d="M87.2794386,3.42582456 C88.3498246,3.42582456 88.8002807,3.58694737 89.1357895,3.72694737 C83.7229473,4.62392982 84.0736842,9.73417544 78.6171228,9.73417544 C75.817614,9.73417544 73.2907369,7.14245614 71.3533333,4.96975438 C69.5220351,2.91592982 67.4500351,1.08757895 64.6770526,0.512842105 C65.0631579,0.430315789 65.7459649,0.284421053 66.6994386,0.284421053 C70.3723509,0.284421053 72.5804211,2.36084211 75.0404913,4.41270176 C77.0068771,6.05291229 79.6369122,7.59242105 82.0675087,7.59242105 C82.4462456,7.59242105 82.7611228,7.52168421 83.0258947,7.47550878 C82.0478596,7.26771929 81.208842,6.95382456 80.3889824,6.3491228 C83.4861754,4.1543158 85.6190877,3.42582456 87.2794386,3.42582456 L87.2794386,3.42582456 Z" id="Fill-3" fill="#AC9976"></path>
                    </g>
                </g>
            </g>
        </g>
    </g>
</svg>